STARTFONT 2.1
COMMENT
COMMENT Converted from OpenType font "Oxanium-VariableFont_wght.ttf" by "otf2bdf 3.0".
COMMENT
FONT -FreeType-Oxanium ExtraLight-Medium-R-Normal--17-170-72-72-P-72-ISO10646-1
SIZE 17 72 72
FONTBOUNDINGBOX 26 21 -7 -4
STARTPROPERTIES 19
FOUNDRY "FreeType"
FAMILY_NAME "Oxanium ExtraLight"
WEIGHT_NAME "Medium"
SLANT "R"
SETWIDTH_NAME "Normal"
ADD_STYLE_NAME ""
PIXEL_SIZE 17
POINT_SIZE 170
RESOLUTION_X 72
RESOLUTION_Y 72
SPACING "P"
AVERAGE_WIDTH 72
CHARSET_REGISTRY "ISO10646"
CHARSET_ENCODING "1"
FONT_ASCENT 13
FONT_DESCENT 3
COPYRIGHT "Copyright 2019 The Oxanium Project Authors (https://github.com/sevmeyer/oxanium)"
_OTF_FONTFILE "Oxanium-VariableFont_wght.ttf"
_OTF_PSNAME "Oxanium-ExtraLight"
ENDPROPERTIES
CHARS 357
STARTCHAR 0000
ENCODING 0
SWIDTH 0 0
DWIDTH 0 0
BBX 0 0 0 0
BITMAP
ENDCHAR
STARTCHAR 000D
ENCODING 13
SWIDTH 235 0
DWIDTH 4 0
BBX 0 0 0 0
BITMAP
ENDCHAR
STARTCHAR 0020
ENCODING 32
SWIDTH 235 0
DWIDTH 4 0
BBX 0 0 0 0
BITMAP
ENDCHAR
STARTCHAR 0021
ENCODING 33
SWIDTH 235 0
DWIDTH 4 0
BBX 1 12 2 0
BITMAP
80
80
80
80
80
80
80
80
00
00
80
80
ENDCHAR
STARTCHAR 0022
ENCODING 34
SWIDTH 352 0
DWIDTH 6 0
BBX 4 4 1 9
BITMAP
90
90
90
90
ENDCHAR
STARTCHAR 0023
ENCODING 35
SWIDTH 647 0
DWIDTH 11 0
BBX 9 12 1 0
BITMAP
2200
2200
2200
FF80
2200
2200
2200
2200
FF80
2200
2200
2200
ENDCHAR
STARTCHAR 0024
ENCODING 36
SWIDTH 588 0
DWIDTH 10 0
BBX 8 15 1 -2
BITMAP
10
10
7E
80
80
80
40
3C
02
01
01
02
FE
10
10
ENDCHAR
STARTCHAR 0025
ENCODING 37
SWIDTH 823 0
DWIDTH 14 0
BBX 13 12 1 0
BITMAP
F080
9080
9100
9100
92F0
9288
9488
F488
0888
0888
0888
10F0
ENDCHAR
STARTCHAR 0026
ENCODING 38
SWIDTH 647 0
DWIDTH 11 0
BBX 9 12 1 0
BITMAP
7E00
4000
8000
8000
4000
7F80
8100
8100
8100
8100
8100
7F00
ENDCHAR
STARTCHAR 0027
ENCODING 39
SWIDTH 176 0
DWIDTH 3 0
BBX 1 4 1 9
BITMAP
80
80
80
80
ENDCHAR
STARTCHAR 0028
ENCODING 40
SWIDTH 294 0
DWIDTH 5 0
BBX 4 16 1 -3
BITMAP
10
20
40
40
40
80
80
80
80
80
80
40
40
40
20
10
ENDCHAR
STARTCHAR 0029
ENCODING 41
SWIDTH 294 0
DWIDTH 5 0
BBX 4 16 0 -3
BITMAP
80
40
20
20
20
20
10
10
10
10
20
20
20
20
40
80
ENDCHAR
STARTCHAR 002A
ENCODING 42
SWIDTH 470 0
DWIDTH 8 0
BBX 7 7 1 5
BITMAP
10
10
96
78
30
48
44
ENDCHAR
STARTCHAR 002B
ENCODING 43
SWIDTH 588 0
DWIDTH 10 0
BBX 8 9 1 1
BITMAP
10
10
10
10
FF
10
10
10
10
ENDCHAR
STARTCHAR 002C
ENCODING 44
SWIDTH 235 0
DWIDTH 4 0
BBX 2 4 1 -2
BITMAP
C0
80
80
80
ENDCHAR
STARTCHAR 002D
ENCODING 45
SWIDTH 352 0
DWIDTH 6 0
BBX 4 1 1 5
BITMAP
F0
ENDCHAR
STARTCHAR 002E
ENCODING 46
SWIDTH 235 0
DWIDTH 4 0
BBX 1 2 2 0
BITMAP
80
80
ENDCHAR
STARTCHAR 002F
ENCODING 47
SWIDTH 352 0
DWIDTH 6 0
BBX 6 14 0 -1
BITMAP
04
08
08
08
10
10
10
20
20
20
40
40
40
80
ENDCHAR
STARTCHAR 0030
ENCODING 48
SWIDTH 588 0
DWIDTH 10 0
BBX 8 12 1 0
BITMAP
7E
81
81
81
81
81
81
81
81
81
81
7E
ENDCHAR
STARTCHAR 0031
ENCODING 49
SWIDTH 588 0
DWIDTH 10 0
BBX 6 12 2 0
BITMAP
F0
10
10
10
10
10
10
10
10
10
10
FC
ENDCHAR
STARTCHAR 0032
ENCODING 50
SWIDTH 588 0
DWIDTH 10 0
BBX 8 12 1 0
BITMAP
7E
01
01
01
01
0E
70
80
80
80
80
FF
ENDCHAR
STARTCHAR 0033
ENCODING 51
SWIDTH 588 0
DWIDTH 10 0
BBX 8 12 1 0
BITMAP
7E
01
01
01
01
3E
02
01
01
01
01
FE
ENDCHAR
STARTCHAR 0034
ENCODING 52
SWIDTH 588 0
DWIDTH 10 0
BBX 8 12 1 0
BITMAP
08
08
10
10
20
21
41
41
81
FF
01
01
ENDCHAR
STARTCHAR 0035
ENCODING 53
SWIDTH 588 0
DWIDTH 10 0
BBX 8 12 1 0
BITMAP
FE
80
80
80
80
FE
01
01
01
01
01
FE
ENDCHAR
STARTCHAR 0036
ENCODING 54
SWIDTH 588 0
DWIDTH 10 0
BBX 8 12 1 0
BITMAP
7E
80
80
80
80
FE
81
81
81
81
81
7E
ENDCHAR
STARTCHAR 0037
ENCODING 55
SWIDTH 588 0
DWIDTH 10 0
BBX 8 12 1 0
BITMAP
FF
01
01
02
02
04
04
08
08
10
10
20
ENDCHAR
STARTCHAR 0038
ENCODING 56
SWIDTH 588 0
DWIDTH 10 0
BBX 8 12 1 0
BITMAP
7E
81
81
81
81
7E
82
81
81
81
81
7E
ENDCHAR
STARTCHAR 0039
ENCODING 57
SWIDTH 588 0
DWIDTH 10 0
BBX 8 12 1 0
BITMAP
7E
81
81
81
81
81
7F
01
01
01
02
7E
ENDCHAR
STARTCHAR 003A
ENCODING 58
SWIDTH 235 0
DWIDTH 4 0
BBX 1 9 2 0
BITMAP
80
80
00
00
00
00
00
80
80
ENDCHAR
STARTCHAR 003B
ENCODING 59
SWIDTH 235 0
DWIDTH 4 0
BBX 2 11 1 -2
BITMAP
40
40
00
00
00
00
00
C0
80
80
80
ENDCHAR
STARTCHAR 003C
ENCODING 60
SWIDTH 588 0
DWIDTH 10 0
BBX 8 7 1 2
BITMAP
07
18
60
80
60
18
07
ENDCHAR
STARTCHAR 003D
ENCODING 61
SWIDTH 588 0
DWIDTH 10 0
BBX 8 5 1 3
BITMAP
FF
00
00
00
FF
ENDCHAR
STARTCHAR 003E
ENCODING 62
SWIDTH 588 0
DWIDTH 10 0
BBX 8 7 1 2
BITMAP
E0
18
06
01
06
18
E0
ENDCHAR
STARTCHAR 003F
ENCODING 63
SWIDTH 470 0
DWIDTH 8 0
BBX 6 12 1 0
BITMAP
FC
04
04
04
04
04
38
20
00
00
20
20
ENDCHAR
STARTCHAR 0040
ENCODING 64
SWIDTH 823 0
DWIDTH 14 0
BBX 10 13 2 -1
BITMAP
FFC0
8040
8040
8FC0
9040
9040
9040
9040
9040
8FC0
8000
8000
FFC0
ENDCHAR
STARTCHAR 0041
ENCODING 65
SWIDTH 588 0
DWIDTH 10 0
BBX 10 12 0 0
BITMAP
0C00
0A00
1200
1200
1100
2100
2100
2080
7F80
4080
4040
8040
ENDCHAR
STARTCHAR 0042
ENCODING 66
SWIDTH 647 0
DWIDTH 11 0
BBX 8 12 2 0
BITMAP
FE
82
82
82
82
FC
83
81
81
81
81
FE
ENDCHAR
STARTCHAR 0043
ENCODING 67
SWIDTH 588 0
DWIDTH 10 0
BBX 8 12 1 0
BITMAP
7F
80
80
80
80
80
80
80
80
80
80
7F
ENDCHAR
STARTCHAR 0044
ENCODING 68
SWIDTH 647 0
DWIDTH 11 0
BBX 8 12 2 0
BITMAP
FE
81
81
81
81
81
81
81
81
81
81
FE
ENDCHAR
STARTCHAR 0045
ENCODING 69
SWIDTH 588 0
DWIDTH 10 0
BBX 7 12 2 0
BITMAP
FE
80
80
80
80
FE
80
80
80
80
80
FE
ENDCHAR
STARTCHAR 0046
ENCODING 70
SWIDTH 588 0
DWIDTH 10 0
BBX 7 12 2 0
BITMAP
FE
80
80
80
80
80
FE
80
80
80
80
80
ENDCHAR
STARTCHAR 0047
ENCODING 71
SWIDTH 647 0
DWIDTH 11 0
BBX 9 12 1 0
BITMAP
7F80
8000
8000
8000
8000
8780
8080
8080
8080
8080
8080
7F80
ENDCHAR
STARTCHAR 0048
ENCODING 72
SWIDTH 705 0
DWIDTH 12 0
BBX 8 12 2 0
BITMAP
81
81
81
81
81
FF
81
81
81
81
81
81
ENDCHAR
STARTCHAR 0049
ENCODING 73
SWIDTH 235 0
DWIDTH 4 0
BBX 1 12 2 0
BITMAP
80
80
80
80
80
80
80
80
80
80
80
80
ENDCHAR
STARTCHAR 004A
ENCODING 74
SWIDTH 588 0
DWIDTH 10 0
BBX 8 12 1 0
BITMAP
1F
01
01
01
01
01
01
01
81
81
81
7E
ENDCHAR
STARTCHAR 004B
ENCODING 75
SWIDTH 588 0
DWIDTH 10 0
BBX 8 12 2 0
BITMAP
82
84
88
88
90
B0
D0
88
84
84
82
81
ENDCHAR
STARTCHAR 004C
ENCODING 76
SWIDTH 529 0
DWIDTH 9 0
BBX 7 12 2 0
BITMAP
80
80
80
80
80
80
80
80
80
80
80
FE
ENDCHAR
STARTCHAR 004D
ENCODING 77
SWIDTH 823 0
DWIDTH 14 0
BBX 11 12 2 0
BITMAP
8060
C060
C0A0
A0A0
A120
A120
9220
9220
8C20
8C20
8020
8020
ENDCHAR
STARTCHAR 004E
ENCODING 78
SWIDTH 705 0
DWIDTH 12 0
BBX 8 12 2 0
BITMAP
81
C1
C1
A1
91
91
89
89
85
83
83
81
ENDCHAR
STARTCHAR 004F
ENCODING 79
SWIDTH 705 0
DWIDTH 12 0
BBX 9 12 1 0
BITMAP
7F80
8080
8080
8080
8080
8080
8080
8080
8080
8080
8080
7F80
ENDCHAR
STARTCHAR 0050
ENCODING 80
SWIDTH 647 0
DWIDTH 11 0
BBX 8 12 2 0
BITMAP
FE
82
81
81
81
82
FE
80
80
80
80
80
ENDCHAR
STARTCHAR 0051
ENCODING 81
SWIDTH 705 0
DWIDTH 12 0
BBX 9 15 1 -3
BITMAP
7F80
8080
8080
8080
8080
8080
8080
8080
8080
8080
8080
7F80
0200
0100
0100
ENDCHAR
STARTCHAR 0052
ENCODING 82
SWIDTH 647 0
DWIDTH 11 0
BBX 8 12 2 0
BITMAP
FE
82
81
81
81
82
FE
84
84
82
82
81
ENDCHAR
STARTCHAR 0053
ENCODING 83
SWIDTH 588 0
DWIDTH 10 0
BBX 8 12 1 0
BITMAP
7E
80
80
80
80
78
06
01
01
01
01
FE
ENDCHAR
STARTCHAR 0054
ENCODING 84
SWIDTH 588 0
DWIDTH 10 0
BBX 9 12 0 0
BITMAP
FF80
0800
0800
0800
0800
0800
0800
0800
0800
0800
0800
0800
ENDCHAR
STARTCHAR 0055
ENCODING 85
SWIDTH 705 0
DWIDTH 12 0
BBX 8 12 2 0
BITMAP
81
81
81
81
81
81
81
81
81
81
81
FE
ENDCHAR
STARTCHAR 0056
ENCODING 86
SWIDTH 588 0
DWIDTH 10 0
BBX 10 12 0 0
BITMAP
8040
4080
4080
4080
2100
2100
2100
1200
1200
1200
0C00
0C00
ENDCHAR
STARTCHAR 0057
ENCODING 87
SWIDTH 882 0
DWIDTH 15 0
BBX 14 12 1 0
BITMAP
8004
8208
8208
8508
8508
4508
4490
4890
4890
2850
3060
3060
ENDCHAR
STARTCHAR 0058
ENCODING 88
SWIDTH 588 0
DWIDTH 10 0
BBX 8 12 1 0
BITMAP
81
42
42
24
18
18
18
24
24
42
81
81
ENDCHAR
STARTCHAR 0059
ENCODING 89
SWIDTH 529 0
DWIDTH 9 0
BBX 9 12 0 0
BITMAP
8080
4100
2100
2200
1200
1400
0C00
0800
0800
0800
0800
0800
ENDCHAR
STARTCHAR 005A
ENCODING 90
SWIDTH 588 0
DWIDTH 10 0
BBX 8 12 1 0
BITMAP
FF
02
02
04
08
08
10
20
20
40
80
FF
ENDCHAR
STARTCHAR 005B
ENCODING 91
SWIDTH 294 0
DWIDTH 5 0
BBX 3 16 2 -3
BITMAP
E0
80
80
80
80
80
80
80
80
80
80
80
80
80
80
E0
ENDCHAR
STARTCHAR 005C
ENCODING 92
SWIDTH 352 0
DWIDTH 6 0
BBX 6 14 0 -1
BITMAP
80
40
40
40
20
20
20
10
10
10
08
08
08
04
ENDCHAR
STARTCHAR 005D
ENCODING 93
SWIDTH 294 0
DWIDTH 5 0
BBX 3 16 1 -3
BITMAP
E0
20
20
20
20
20
20
20
20
20
20
20
20
20
20
E0
ENDCHAR
STARTCHAR 005E
ENCODING 94
SWIDTH 529 0
DWIDTH 9 0
BBX 7 6 1 6
BITMAP
10
28
28
44
84
82
ENDCHAR
STARTCHAR 005F
ENCODING 95
SWIDTH 588 0
DWIDTH 10 0
BBX 8 1 1 -4
BITMAP
FF
ENDCHAR
STARTCHAR 0060
ENCODING 96
SWIDTH 529 0
DWIDTH 9 0
BBX 3 3 2 10
BITMAP
80
40
20
ENDCHAR
STARTCHAR 0061
ENCODING 97
SWIDTH 529 0
DWIDTH 9 0
BBX 7 9 1 0
BITMAP
7C
02
02
02
7E
82
82
82
7E
ENDCHAR
STARTCHAR 0062
ENCODING 98
SWIDTH 588 0
DWIDTH 10 0
BBX 8 13 1 0
BITMAP
80
80
80
80
FE
82
81
81
81
81
81
82
FE
ENDCHAR
STARTCHAR 0063
ENCODING 99
SWIDTH 470 0
DWIDTH 8 0
BBX 7 9 1 0
BITMAP
7E
80
80
80
80
80
80
80
7E
ENDCHAR
STARTCHAR 0064
ENCODING 100
SWIDTH 588 0
DWIDTH 10 0
BBX 7 13 1 0
BITMAP
02
02
02
02
7E
82
82
82
82
82
82
82
7E
ENDCHAR
STARTCHAR 0065
ENCODING 101
SWIDTH 588 0
DWIDTH 10 0
BBX 7 9 1 0
BITMAP
7E
82
82
82
FE
80
80
80
7E
ENDCHAR
STARTCHAR 0066
ENCODING 102
SWIDTH 352 0
DWIDTH 6 0
BBX 5 13 1 0
BITMAP
78
80
80
80
F8
80
80
80
80
80
80
80
80
ENDCHAR
STARTCHAR 0067
ENCODING 103
SWIDTH 588 0
DWIDTH 10 0
BBX 7 13 1 -4
BITMAP
7E
82
82
82
82
82
82
82
7E
02
02
02
7E
ENDCHAR
STARTCHAR 0068
ENCODING 104
SWIDTH 588 0
DWIDTH 10 0
BBX 8 13 1 0
BITMAP
80
80
80
80
FE
82
81
81
81
81
81
81
81
ENDCHAR
STARTCHAR 0069
ENCODING 105
SWIDTH 235 0
DWIDTH 4 0
BBX 1 12 1 0
BITMAP
80
00
00
80
80
80
80
80
80
80
80
80
ENDCHAR
STARTCHAR 006A
ENCODING 106
SWIDTH 235 0
DWIDTH 4 0
BBX 2 16 0 -4
BITMAP
40
00
00
40
40
40
40
40
40
40
40
40
40
40
40
C0
ENDCHAR
STARTCHAR 006B
ENCODING 107
SWIDTH 470 0
DWIDTH 8 0
BBX 7 13 1 0
BITMAP
80
80
80
80
86
84
88
90
B0
C8
88
84
82
ENDCHAR
STARTCHAR 006C
ENCODING 108
SWIDTH 235 0
DWIDTH 4 0
BBX 2 13 1 0
BITMAP
80
80
80
80
80
80
80
80
80
80
80
80
40
ENDCHAR
STARTCHAR 006D
ENCODING 109
SWIDTH 882 0
DWIDTH 15 0
BBX 13 9 1 0
BITMAP
FFF0
8208
8208
8208
8208
8208
8208
8208
8208
ENDCHAR
STARTCHAR 006E
ENCODING 110
SWIDTH 588 0
DWIDTH 10 0
BBX 8 9 1 0
BITMAP
FE
82
81
81
81
81
81
81
81
ENDCHAR
STARTCHAR 006F
ENCODING 111
SWIDTH 588 0
DWIDTH 10 0
BBX 8 9 1 0
BITMAP
7E
81
81
81
81
81
81
81
7E
ENDCHAR
STARTCHAR 0070
ENCODING 112
SWIDTH 588 0
DWIDTH 10 0
BBX 8 13 1 -4
BITMAP
FE
82
81
81
81
81
81
82
FE
80
80
80
80
ENDCHAR
STARTCHAR 0071
ENCODING 113
SWIDTH 588 0
DWIDTH 10 0
BBX 7 13 1 -4
BITMAP
7E
82
82
82
82
82
82
82
7E
02
02
02
02
ENDCHAR
STARTCHAR 0072
ENCODING 114
SWIDTH 352 0
DWIDTH 6 0
BBX 5 9 1 0
BITMAP
78
80
80
80
80
80
80
80
80
ENDCHAR
STARTCHAR 0073
ENCODING 115
SWIDTH 470 0
DWIDTH 8 0
BBX 6 9 1 0
BITMAP
7C
80
80
80
78
04
04
04
FC
ENDCHAR
STARTCHAR 0074
ENCODING 116
SWIDTH 352 0
DWIDTH 6 0
BBX 5 12 1 0
BITMAP
80
80
80
F8
80
80
80
80
80
80
80
78
ENDCHAR
STARTCHAR 0075
ENCODING 117
SWIDTH 588 0
DWIDTH 10 0
BBX 7 9 1 0
BITMAP
82
82
82
82
82
82
82
82
7E
ENDCHAR
STARTCHAR 0076
ENCODING 118
SWIDTH 470 0
DWIDTH 8 0
BBX 8 9 0 0
BITMAP
81
41
42
42
22
24
24
14
18
ENDCHAR
STARTCHAR 0077
ENCODING 119
SWIDTH 764 0
DWIDTH 13 0
BBX 13 9 0 0
BITMAP
8208
4510
4510
4510
4510
28A0
28A0
28A0
1040
ENDCHAR
STARTCHAR 0078
ENCODING 120
SWIDTH 470 0
DWIDTH 8 0
BBX 7 9 1 0
BITMAP
82
44
48
30
10
28
48
84
82
ENDCHAR
STARTCHAR 0079
ENCODING 121
SWIDTH 470 0
DWIDTH 8 0
BBX 8 13 0 -4
BITMAP
81
41
42
42
22
24
24
14
18
08
08
10
10
ENDCHAR
STARTCHAR 007A
ENCODING 122
SWIDTH 529 0
DWIDTH 9 0
BBX 7 9 1 0
BITMAP
FC
04
08
10
10
20
40
40
FE
ENDCHAR
STARTCHAR 007B
ENCODING 123
SWIDTH 352 0
DWIDTH 6 0
BBX 5 16 1 -3
BITMAP
38
40
40
40
40
40
40
80
80
40
40
40
40
40
40
38
ENDCHAR
STARTCHAR 007C
ENCODING 124
SWIDTH 235 0
DWIDTH 4 0
BBX 1 17 2 -4
BITMAP
80
80
80
80
80
80
80
80
80
80
80
80
80
80
80
80
80
ENDCHAR
STARTCHAR 007D
ENCODING 125
SWIDTH 352 0
DWIDTH 6 0
BBX 4 16 1 -3
BITMAP
C0
20
20
20
20
20
20
10
10
20
20
20
20
20
20
C0
ENDCHAR
STARTCHAR 007E
ENCODING 126
SWIDTH 588 0
DWIDTH 10 0
BBX 8 3 1 4
BITMAP
31
52
8C
ENDCHAR
STARTCHAR 00A0
ENCODING 160
SWIDTH 235 0
DWIDTH 4 0
BBX 0 0 0 0
BITMAP
ENDCHAR
STARTCHAR 00A1
ENCODING 161
SWIDTH 235 0
DWIDTH 4 0
BBX 1 12 2 -3
BITMAP
80
80
00
00
80
80
80
80
80
80
80
80
ENDCHAR
STARTCHAR 00A2
ENCODING 162
SWIDTH 588 0
DWIDTH 10 0
BBX 6 13 2 -2
BITMAP
10
10
FC
80
80
80
80
80
80
80
FC
10
10
ENDCHAR
STARTCHAR 00A3
ENCODING 163
SWIDTH 588 0
DWIDTH 10 0
BBX 8 12 1 0
BITMAP
1E
20
20
20
20
20
FC
20
20
20
20
FF
ENDCHAR
STARTCHAR 00A4
ENCODING 164
SWIDTH 588 0
DWIDTH 10 0
BBX 8 7 1 2
BITMAP
83
7C
42
42
42
7C
83
ENDCHAR
STARTCHAR 00A5
ENCODING 165
SWIDTH 588 0
DWIDTH 10 0
BBX 8 12 1 0
BITMAP
81
82
42
24
24
18
7E
10
7E
10
10
10
ENDCHAR
STARTCHAR 00A6
ENCODING 166
SWIDTH 235 0
DWIDTH 4 0
BBX 1 17 2 -4
BITMAP
80
80
80
80
80
80
00
00
00
00
00
80
80
80
80
80
80
ENDCHAR
STARTCHAR 00A7
ENCODING 167
SWIDTH 529 0
DWIDTH 9 0
BBX 7 14 1 -2
BITMAP
7C
80
80
40
B8
84
82
82
42
3A
04
02
02
FC
ENDCHAR
STARTCHAR 00A8
ENCODING 168
SWIDTH 529 0
DWIDTH 9 0
BBX 4 1 2 11
BITMAP
90
ENDCHAR
STARTCHAR 00A9
ENCODING 169
SWIDTH 823 0
DWIDTH 14 0
BBX 12 13 1 0
BITMAP
7FE0
8010
8010
8F10
9010
9010
9010
9010
9010
8F10
8010
8010
7FE0
ENDCHAR
STARTCHAR 00AA
ENCODING 170
SWIDTH 411 0
DWIDTH 7 0
BBX 5 7 1 5
BITMAP
F8
08
08
F8
88
88
F8
ENDCHAR
STARTCHAR 00AB
ENCODING 171
SWIDTH 470 0
DWIDTH 8 0
BBX 6 7 1 2
BITMAP
24
48
90
A0
90
48
24
ENDCHAR
STARTCHAR 00AC
ENCODING 172
SWIDTH 588 0
DWIDTH 10 0
BBX 8 4 1 3
BITMAP
FF
01
01
01
ENDCHAR
STARTCHAR 00AD
ENCODING 173
SWIDTH 352 0
DWIDTH 6 0
BBX 4 1 1 5
BITMAP
F0
ENDCHAR
STARTCHAR 00AE
ENCODING 174
SWIDTH 823 0
DWIDTH 14 0
BBX 12 13 1 0
BITMAP
7FE0
8010
8010
8F10
8890
8890
8F10
8910
8910
8890
8010
8010
7FE0
ENDCHAR
STARTCHAR 00AF
ENCODING 175
SWIDTH 529 0
DWIDTH 9 0
BBX 4 1 2 11
BITMAP
F0
ENDCHAR
STARTCHAR 00B0
ENCODING 176
SWIDTH 411 0
DWIDTH 7 0
BBX 5 6 1 6
BITMAP
F8
88
88
88
88
F8
ENDCHAR
STARTCHAR 00B1
ENCODING 177
SWIDTH 588 0
DWIDTH 10 0
BBX 8 10 1 0
BITMAP
10
10
10
10
FF
10
10
10
10
FF
ENDCHAR
STARTCHAR 00B2
ENCODING 178
SWIDTH 352 0
DWIDTH 6 0
BBX 4 8 1 4
BITMAP
F0
10
10
30
C0
80
80
F0
ENDCHAR
STARTCHAR 00B3
ENCODING 179
SWIDTH 352 0
DWIDTH 6 0
BBX 4 8 1 4
BITMAP
F0
10
10
70
10
10
10
F0
ENDCHAR
STARTCHAR 00B4
ENCODING 180
SWIDTH 529 0
DWIDTH 9 0
BBX 3 3 3 10
BITMAP
20
40
80
ENDCHAR
STARTCHAR 00B5
ENCODING 181
SWIDTH 588 0
DWIDTH 10 0
BBX 8 13 1 -4
BITMAP
81
81
81
81
81
81
81
82
FE
80
80
80
80
ENDCHAR
STARTCHAR 00B6
ENCODING 182
SWIDTH 529 0
DWIDTH 9 0
BBX 6 15 1 -3
BITMAP
74
F4
F4
F4
F4
F4
74
04
04
04
04
04
04
04
04
ENDCHAR
STARTCHAR 00B7
ENCODING 183
SWIDTH 235 0
DWIDTH 4 0
BBX 1 2 2 5
BITMAP
80
80
ENDCHAR
STARTCHAR 00B8
ENCODING 184
SWIDTH 529 0
DWIDTH 9 0
BBX 3 3 2 -3
BITMAP
20
20
E0
ENDCHAR
STARTCHAR 00B9
ENCODING 185
SWIDTH 352 0
DWIDTH 6 0
BBX 4 8 1 4
BITMAP
E0
20
20
20
20
20
20
F0
ENDCHAR
STARTCHAR 00BA
ENCODING 186
SWIDTH 411 0
DWIDTH 7 0
BBX 5 7 1 5
BITMAP
F8
88
88
88
88
88
F8
ENDCHAR
STARTCHAR 00BB
ENCODING 187
SWIDTH 470 0
DWIDTH 8 0
BBX 6 7 1 2
BITMAP
90
48
48
24
48
48
90
ENDCHAR
STARTCHAR 00BC
ENCODING 188
SWIDTH 823 0
DWIDTH 14 0
BBX 12 12 1 0
BITMAP
E040
2080
2080
2100
2120
2240
2240
F450
0490
0890
08F0
1010
ENDCHAR
STARTCHAR 00BD
ENCODING 189
SWIDTH 882 0
DWIDTH 15 0
BBX 13 12 1 0
BITMAP
E040
2080
2080
2100
2178
2208
2208
F418
0460
0880
0880
1078
ENDCHAR
STARTCHAR 00BE
ENCODING 190
SWIDTH 823 0
DWIDTH 14 0
BBX 12 12 1 0
BITMAP
F080
1080
1100
7100
1240
1240
1440
F490
0890
0910
09F0
1010
ENDCHAR
STARTCHAR 00BF
ENCODING 191
SWIDTH 470 0
DWIDTH 8 0
BBX 7 12 1 -3
BITMAP
10
10
00
00
10
70
80
80
80
80
80
7E
ENDCHAR
STARTCHAR 00C0
ENCODING 192
SWIDTH 588 0
DWIDTH 10 0
BBX 10 16 0 0
BITMAP
1000
0800
0400
0000
0C00
0A00
1200
1200
1100
2100
2100
2080
7F80
4080
4040
8040
ENDCHAR
STARTCHAR 00C1
ENCODING 193
SWIDTH 588 0
DWIDTH 10 0
BBX 10 16 0 0
BITMAP
0200
0400
0800
0000
0C00
0A00
1200
1200
1100
2100
2100
2080
7F80
4080
4040
8040
ENDCHAR
STARTCHAR 00C2
ENCODING 194
SWIDTH 588 0
DWIDTH 10 0
BBX 10 16 0 0
BITMAP
0400
0C00
1200
0000
0C00
0A00
1200
1200
1100
2100
2100
2080
7F80
4080
4040
8040
ENDCHAR
STARTCHAR 00C3
ENCODING 195
SWIDTH 588 0
DWIDTH 10 0
BBX 10 15 0 0
BITMAP
0900
1600
0000
0C00
0A00
1200
1200
1100
2100
2100
2080
7F80
4080
4040
8040
ENDCHAR
STARTCHAR 00C4
ENCODING 196
SWIDTH 588 0
DWIDTH 10 0
BBX 10 14 0 0
BITMAP
1200
0000
0C00
0A00
1200
1200
1100
2100
2100
2080
7F80
4080
4040
8040
ENDCHAR
STARTCHAR 00C5
ENCODING 197
SWIDTH 588 0
DWIDTH 10 0
BBX 10 16 0 0
BITMAP
0E00
1200
0E00
0000
0C00
0A00
1200
1200
1100
2100
2100
2080
7F80
4080
4040
8040
ENDCHAR
STARTCHAR 00C6
ENCODING 198
SWIDTH 882 0
DWIDTH 15 0
BBX 14 12 0 0
BITMAP
0FFC
0900
1100
1100
1100
21F8
2100
2100
7F00
4100
4100
81FC
ENDCHAR
STARTCHAR 00C7
ENCODING 199
SWIDTH 588 0
DWIDTH 10 0
BBX 8 15 1 -3
BITMAP
7F
80
80
80
80
80
80
80
80
80
80
7F
04
04
18
ENDCHAR
STARTCHAR 00C8
ENCODING 200
SWIDTH 588 0
DWIDTH 10 0
BBX 7 16 2 0
BITMAP
60
20
10
00
FE
80
80
80
80
FE
80
80
80
80
80
FE
ENDCHAR
STARTCHAR 00C9
ENCODING 201
SWIDTH 588 0
DWIDTH 10 0
BBX 7 16 2 0
BITMAP
08
10
20
00
FE
80
80
80
80
FE
80
80
80
80
80
FE
ENDCHAR
STARTCHAR 00CA
ENCODING 202
SWIDTH 588 0
DWIDTH 10 0
BBX 7 16 2 0
BITMAP
10
28
44
00
FE
80
80
80
80
FE
80
80
80
80
80
FE
ENDCHAR
STARTCHAR 00CB
ENCODING 203
SWIDTH 588 0
DWIDTH 10 0
BBX 7 14 2 0
BITMAP
48
00
FE
80
80
80
80
FE
80
80
80
80
80
FE
ENDCHAR
STARTCHAR 00CC
ENCODING 204
SWIDTH 235 0
DWIDTH 4 0
BBX 3 16 0 0
BITMAP
80
40
20
00
20
20
20
20
20
20
20
20
20
20
20
20
ENDCHAR
STARTCHAR 00CD
ENCODING 205
SWIDTH 235 0
DWIDTH 4 0
BBX 3 16 1 0
BITMAP
20
40
80
00
40
40
40
40
40
40
40
40
40
40
40
40
ENDCHAR
STARTCHAR 00CE
ENCODING 206
SWIDTH 235 0
DWIDTH 4 0
BBX 4 16 0 0
BITMAP
20
60
90
00
20
20
20
20
20
20
20
20
20
20
20
20
ENDCHAR
STARTCHAR 00CF
ENCODING 207
SWIDTH 235 0
DWIDTH 4 0
BBX 4 14 0 0
BITMAP
90
00
20
20
20
20
20
20
20
20
20
20
20
20
ENDCHAR
STARTCHAR 00D0
ENCODING 208
SWIDTH 705 0
DWIDTH 12 0
BBX 10 12 0 0
BITMAP
3F80
2040
2040
2040
2040
2040
FC40
2040
2040
2040
2040
3F80
ENDCHAR
STARTCHAR 00D1
ENCODING 209
SWIDTH 705 0
DWIDTH 12 0
BBX 8 15 2 0
BITMAP
32
2C
00
81
C1
C1
A1
91
91
89
89
85
83
83
81
ENDCHAR
STARTCHAR 00D2
ENCODING 210
SWIDTH 705 0
DWIDTH 12 0
BBX 9 16 1 0
BITMAP
1000
0800
0400
0000
7F80
8080
8080
8080
8080
8080
8080
8080
8080
8080
8080
7F80
ENDCHAR
STARTCHAR 00D3
ENCODING 211
SWIDTH 705 0
DWIDTH 12 0
BBX 9 16 1 0
BITMAP
0200
0400
0800
0000
7F80
8080
8080
8080
8080
8080
8080
8080
8080
8080
8080
7F80
ENDCHAR
STARTCHAR 00D4
ENCODING 212
SWIDTH 705 0
DWIDTH 12 0
BBX 9 16 1 0
BITMAP
0800
0C00
1200
0000
7F80
8080
8080
8080
8080
8080
8080
8080
8080
8080
8080
7F80
ENDCHAR
STARTCHAR 00D5
ENCODING 213
SWIDTH 705 0
DWIDTH 12 0
BBX 9 15 1 0
BITMAP
1A00
2600
0000
7F80
8080
8080
8080
8080
8080
8080
8080
8080
8080
8080
7F80
ENDCHAR
STARTCHAR 00D6
ENCODING 214
SWIDTH 705 0
DWIDTH 12 0
BBX 9 14 1 0
BITMAP
1200
0000
7F80
8080
8080
8080
8080
8080
8080
8080
8080
8080
8080
7F80
ENDCHAR
STARTCHAR 00D7
ENCODING 215
SWIDTH 588 0
DWIDTH 10 0
BBX 6 7 2 2
BITMAP
84
88
50
20
50
88
84
ENDCHAR
STARTCHAR 00D8
ENCODING 216
SWIDTH 705 0
DWIDTH 12 0
BBX 9 12 1 0
BITMAP
7F80
8080
8080
8180
8280
8480
8880
9080
A080
C080
8080
7F80
ENDCHAR
STARTCHAR 00D9
ENCODING 217
SWIDTH 705 0
DWIDTH 12 0
BBX 8 16 2 0
BITMAP
20
10
08
00
81
81
81
81
81
81
81
81
81
81
81
FE
ENDCHAR
STARTCHAR 00DA
ENCODING 218
SWIDTH 705 0
DWIDTH 12 0
BBX 8 16 2 0
BITMAP
04
08
10
00
81
81
81
81
81
81
81
81
81
81
81
FE
ENDCHAR
STARTCHAR 00DB
ENCODING 219
SWIDTH 705 0
DWIDTH 12 0
BBX 8 16 2 0
BITMAP
10
28
24
00
81
81
81
81
81
81
81
81
81
81
81
FE
ENDCHAR
STARTCHAR 00DC
ENCODING 220
SWIDTH 705 0
DWIDTH 12 0
BBX 8 14 2 0
BITMAP
24
00
81
81
81
81
81
81
81
81
81
81
81
FE
ENDCHAR
STARTCHAR 00DD
ENCODING 221
SWIDTH 529 0
DWIDTH 9 0
BBX 9 16 0 0
BITMAP
0200
0400
0800
0000
8080
4100
2100
2200
1200
1400
0C00
0800
0800
0800
0800
0800
ENDCHAR
STARTCHAR 00DE
ENCODING 222
SWIDTH 647 0
DWIDTH 11 0
BBX 8 12 2 0
BITMAP
80
80
FC
82
81
81
81
81
82
FC
80
80
ENDCHAR
STARTCHAR 00DF
ENCODING 223
SWIDTH 588 0
DWIDTH 10 0
BBX 8 13 1 0
BITMAP
7E
82
81
81
81
82
9E
81
81
81
81
81
9E
ENDCHAR
STARTCHAR 00E0
ENCODING 224
SWIDTH 529 0
DWIDTH 9 0
BBX 7 13 1 0
BITMAP
20
10
10
00
7C
02
02
02
7E
82
82
82
7E
ENDCHAR
STARTCHAR 00E1
ENCODING 225
SWIDTH 529 0
DWIDTH 9 0
BBX 7 13 1 0
BITMAP
08
08
10
00
7C
02
02
02
7E
82
82
82
7E
ENDCHAR
STARTCHAR 00E2
ENCODING 226
SWIDTH 529 0
DWIDTH 9 0
BBX 7 13 1 0
BITMAP
10
28
44
00
7C
02
02
02
7E
82
82
82
7E
ENDCHAR
STARTCHAR 00E3
ENCODING 227
SWIDTH 529 0
DWIDTH 9 0
BBX 7 12 1 0
BITMAP
34
48
00
7C
02
02
02
7E
82
82
82
7E
ENDCHAR
STARTCHAR 00E4
ENCODING 228
SWIDTH 529 0
DWIDTH 9 0
BBX 7 12 1 0
BITMAP
28
00
00
7C
02
02
02
7E
82
82
82
7E
ENDCHAR
STARTCHAR 00E5
ENCODING 229
SWIDTH 529 0
DWIDTH 9 0
BBX 7 13 1 0
BITMAP
38
28
38
00
7C
02
02
02
7E
82
82
82
7E
ENDCHAR
STARTCHAR 00E6
ENCODING 230
SWIDTH 882 0
DWIDTH 15 0
BBX 13 9 1 0
BITMAP
7DF0
0208
0208
0208
7FF8
8200
8200
8200
7DF0
ENDCHAR
STARTCHAR 00E7
ENCODING 231
SWIDTH 470 0
DWIDTH 8 0
BBX 7 12 1 -3
BITMAP
7E
80
80
80
80
80
80
80
7E
08
08
30
ENDCHAR
STARTCHAR 00E8
ENCODING 232
SWIDTH 588 0
DWIDTH 10 0
BBX 7 13 1 0
BITMAP
20
10
08
00
7E
82
82
82
FE
80
80
80
7E
ENDCHAR
STARTCHAR 00E9
ENCODING 233
SWIDTH 588 0
DWIDTH 10 0
BBX 7 13 1 0
BITMAP
04
08
10
00
7E
82
82
82
FE
80
80
80
7E
ENDCHAR
STARTCHAR 00EA
ENCODING 234
SWIDTH 588 0
DWIDTH 10 0
BBX 7 13 1 0
BITMAP
10
28
24
00
7E
82
82
82
FE
80
80
80
7E
ENDCHAR
STARTCHAR 00EB
ENCODING 235
SWIDTH 588 0
DWIDTH 10 0
BBX 7 12 1 0
BITMAP
24
00
00
7E
82
82
82
FE
80
80
80
7E
ENDCHAR
STARTCHAR 00EC
ENCODING 236
SWIDTH 235 0
DWIDTH 4 0
BBX 3 13 0 0
BITMAP
80
40
20
00
40
40
40
40
40
40
40
40
40
ENDCHAR
STARTCHAR 00ED
ENCODING 237
SWIDTH 235 0
DWIDTH 4 0
BBX 3 13 1 0
BITMAP
20
40
80
00
80
80
80
80
80
80
80
80
80
ENDCHAR
STARTCHAR 00EE
ENCODING 238
SWIDTH 235 0
DWIDTH 4 0
BBX 4 13 0 0
BITMAP
40
A0
90
00
40
40
40
40
40
40
40
40
40
ENDCHAR
STARTCHAR 00EF
ENCODING 239
SWIDTH 235 0
DWIDTH 4 0
BBX 4 12 0 0
BITMAP
90
00
00
40
40
40
40
40
40
40
40
40
ENDCHAR
STARTCHAR 00F0
ENCODING 240
SWIDTH 588 0
DWIDTH 10 0
BBX 8 13 1 0
BITMAP
08
0A
1C
04
02
7E
81
81
81
81
81
81
7E
ENDCHAR
STARTCHAR 00F1
ENCODING 241
SWIDTH 588 0
DWIDTH 10 0
BBX 8 12 1 0
BITMAP
34
4C
00
FE
82
81
81
81
81
81
81
81
ENDCHAR
STARTCHAR 00F2
ENCODING 242
SWIDTH 588 0
DWIDTH 10 0
BBX 8 13 1 0
BITMAP
20
10
08
00
7E
81
81
81
81
81
81
81
7E
ENDCHAR
STARTCHAR 00F3
ENCODING 243
SWIDTH 588 0
DWIDTH 10 0
BBX 8 13 1 0
BITMAP
04
08
10
00
7E
81
81
81
81
81
81
81
7E
ENDCHAR
STARTCHAR 00F4
ENCODING 244
SWIDTH 588 0
DWIDTH 10 0
BBX 8 13 1 0
BITMAP
10
18
24
00
7E
81
81
81
81
81
81
81
7E
ENDCHAR
STARTCHAR 00F5
ENCODING 245
SWIDTH 588 0
DWIDTH 10 0
BBX 8 12 1 0
BITMAP
34
4C
00
7E
81
81
81
81
81
81
81
7E
ENDCHAR
STARTCHAR 00F6
ENCODING 246
SWIDTH 588 0
DWIDTH 10 0
BBX 8 12 1 0
BITMAP
24
00
00
7E
81
81
81
81
81
81
81
7E
ENDCHAR
STARTCHAR 00F7
ENCODING 247
SWIDTH 588 0
DWIDTH 10 0
BBX 8 7 1 2
BITMAP
18
00
00
FF
00
18
18
ENDCHAR
STARTCHAR 00F8
ENCODING 248
SWIDTH 588 0
DWIDTH 10 0
BBX 8 9 1 0
BITMAP
7E
81
83
8D
91
A1
C1
81
7E
ENDCHAR
STARTCHAR 00F9
ENCODING 249
SWIDTH 588 0
DWIDTH 10 0
BBX 7 13 1 0
BITMAP
20
10
08
00
82
82
82
82
82
82
82
82
7E
ENDCHAR
STARTCHAR 00FA
ENCODING 250
SWIDTH 588 0
DWIDTH 10 0
BBX 7 13 1 0
BITMAP
04
08
10
00
82
82
82
82
82
82
82
82
7E
ENDCHAR
STARTCHAR 00FB
ENCODING 251
SWIDTH 588 0
DWIDTH 10 0
BBX 7 13 1 0
BITMAP
10
18
24
00
82
82
82
82
82
82
82
82
7E
ENDCHAR
STARTCHAR 00FC
ENCODING 252
SWIDTH 588 0
DWIDTH 10 0
BBX 7 12 1 0
BITMAP
24
00
00
82
82
82
82
82
82
82
82
7E
ENDCHAR
STARTCHAR 00FD
ENCODING 253
SWIDTH 470 0
DWIDTH 8 0
BBX 8 17 0 -4
BITMAP
04
08
10
00
81
41
42
42
22
24
24
14
18
08
08
10
10
ENDCHAR
STARTCHAR 00FE
ENCODING 254
SWIDTH 588 0
DWIDTH 10 0
BBX 8 17 1 -4
BITMAP
80
80
80
80
FE
82
81
81
81
81
81
82
FE
80
80
80
80
ENDCHAR
STARTCHAR 00FF
ENCODING 255
SWIDTH 470 0
DWIDTH 8 0
BBX 8 16 0 -4
BITMAP
24
00
00
81
41
42
42
22
24
24
14
18
08
08
10
10
ENDCHAR
STARTCHAR 0100
ENCODING 256
SWIDTH 588 0
DWIDTH 10 0
BBX 10 15 0 0
BITMAP
1E00
0000
0000
0C00
0A00
1200
1200
1100
2100
2100
2080
7F80
4080
4040
8040
ENDCHAR
STARTCHAR 0101
ENCODING 257
SWIDTH 529 0
DWIDTH 9 0
BBX 7 12 1 0
BITMAP
3C
00
00
7C
02
02
02
7E
82
82
82
7E
ENDCHAR
STARTCHAR 0102
ENCODING 258
SWIDTH 588 0
DWIDTH 10 0
BBX 10 15 0 0
BITMAP
1200
1E00
0000
0C00
0A00
1200
1200
1100
2100
2100
2080
7F80
4080
4040
8040
ENDCHAR
STARTCHAR 0103
ENCODING 259
SWIDTH 529 0
DWIDTH 9 0
BBX 7 12 1 0
BITMAP
44
38
00
7C
02
02
02
7E
82
82
82
7E
ENDCHAR
STARTCHAR 0104
ENCODING 260
SWIDTH 588 0
DWIDTH 10 0
BBX 10 15 0 -3
BITMAP
0C00
0A00
1200
1200
1100
2100
2100
2080
7F80
4080
4040
80C0
0100
0100
00C0
ENDCHAR
STARTCHAR 0105
ENCODING 261
SWIDTH 529 0
DWIDTH 9 0
BBX 7 12 1 -3
BITMAP
7C
02
02
02
7E
82
82
82
7E
08
08
06
ENDCHAR
STARTCHAR 0106
ENCODING 262
SWIDTH 588 0
DWIDTH 10 0
BBX 8 16 1 0
BITMAP
02
04
08
00
7F
80
80
80
80
80
80
80
80
80
80
7F
ENDCHAR
STARTCHAR 0107
ENCODING 263
SWIDTH 470 0
DWIDTH 8 0
BBX 7 13 1 0
BITMAP
04
08
10
00
7E
80
80
80
80
80
80
80
7E
ENDCHAR
STARTCHAR 010C
ENCODING 268
SWIDTH 588 0
DWIDTH 10 0
BBX 8 16 1 0
BITMAP
12
14
08
00
7F
80
80
80
80
80
80
80
80
80
80
7F
ENDCHAR
STARTCHAR 010D
ENCODING 269
SWIDTH 470 0
DWIDTH 8 0
BBX 7 13 1 0
BITMAP
24
28
10
00
7E
80
80
80
80
80
80
80
7E
ENDCHAR
STARTCHAR 010E
ENCODING 270
SWIDTH 647 0
DWIDTH 11 0
BBX 8 16 2 0
BITMAP
44
28
10
00
FE
81
81
81
81
81
81
81
81
81
81
FE
ENDCHAR
STARTCHAR 010F
ENCODING 271
SWIDTH 588 0
DWIDTH 10 0
BBX 10 13 1 0
BITMAP
0240
0280
0280
0200
7E00
8200
8200
8200
8200
8200
8200
8200
7E00
ENDCHAR
STARTCHAR 0110
ENCODING 272
SWIDTH 705 0
DWIDTH 12 0
BBX 10 12 0 0
BITMAP
3F80
2040
2040
2040
2040
2040
FC40
2040
2040
2040
2040
3F80
ENDCHAR
STARTCHAR 0111
ENCODING 273
SWIDTH 588 0
DWIDTH 10 0
BBX 9 13 1 0
BITMAP
0200
0200
1F80
0200
7E00
8200
8200
8200
8200
8200
8200
8200
7E00
ENDCHAR
STARTCHAR 0112
ENCODING 274
SWIDTH 588 0
DWIDTH 10 0
BBX 7 15 2 0
BITMAP
78
00
00
FE
80
80
80
80
FE
80
80
80
80
80
FE
ENDCHAR
STARTCHAR 0113
ENCODING 275
SWIDTH 588 0
DWIDTH 10 0
BBX 7 12 1 0
BITMAP
3C
00
00
7E
82
82
82
FE
80
80
80
7E
ENDCHAR
STARTCHAR 0116
ENCODING 278
SWIDTH 588 0
DWIDTH 10 0
BBX 7 14 2 0
BITMAP
10
00
FE
80
80
80
80
FE
80
80
80
80
80
FE
ENDCHAR
STARTCHAR 0117
ENCODING 279
SWIDTH 588 0
DWIDTH 10 0
BBX 7 12 1 0
BITMAP
10
00
00
7E
82
82
82
FE
80
80
80
7E
ENDCHAR
STARTCHAR 0118
ENCODING 280
SWIDTH 588 0
DWIDTH 10 0
BBX 7 15 2 -3
BITMAP
FE
80
80
80
80
FE
80
80
80
80
80
FE
08
08
06
ENDCHAR
STARTCHAR 0119
ENCODING 281
SWIDTH 588 0
DWIDTH 10 0
BBX 7 12 1 -3
BITMAP
7E
82
82
82
FE
80
80
80
7E
08
08
06
ENDCHAR
STARTCHAR 011A
ENCODING 282
SWIDTH 588 0
DWIDTH 10 0
BBX 7 16 2 0
BITMAP
44
28
10
00
FE
80
80
80
80
FE
80
80
80
80
80
FE
ENDCHAR
STARTCHAR 011B
ENCODING 283
SWIDTH 588 0
DWIDTH 10 0
BBX 7 13 1 0
BITMAP
24
18
10
00
7E
82
82
82
FE
80
80
80
7E
ENDCHAR
STARTCHAR 011E
ENCODING 286
SWIDTH 647 0
DWIDTH 11 0
BBX 9 15 1 0
BITMAP
1200
1E00
0000
7F80
8000
8000
8000
8000
8780
8080
8080
8080
8080
8080
7F80
ENDCHAR
STARTCHAR 011F
ENCODING 287
SWIDTH 588 0
DWIDTH 10 0
BBX 7 16 1 -4
BITMAP
24
3C
00
7E
82
82
82
82
82
82
82
7E
02
02
02
7E
ENDCHAR
STARTCHAR 0122
ENCODING 290
SWIDTH 647 0
DWIDTH 11 0
BBX 9 16 1 -4
BITMAP
7F80
8000
8000
8000
8000
8780
8080
8080
8080
8080
8080
7F80
0000
0800
0800
0800
ENDCHAR
STARTCHAR 0123
ENCODING 291
SWIDTH 588 0
DWIDTH 10 0
BBX 7 17 1 -4
BITMAP
08
08
08
00
7E
82
82
82
82
82
82
82
7E
02
02
02
7E
ENDCHAR
STARTCHAR 012A
ENCODING 298
SWIDTH 235 0
DWIDTH 4 0
BBX 4 15 0 0
BITMAP
F0
00
00
20
20
20
20
20
20
20
20
20
20
20
20
ENDCHAR
STARTCHAR 012B
ENCODING 299
SWIDTH 235 0
DWIDTH 4 0
BBX 4 12 0 0
BITMAP
F0
00
00
40
40
40
40
40
40
40
40
40
ENDCHAR
STARTCHAR 012E
ENCODING 302
SWIDTH 235 0
DWIDTH 4 0
BBX 3 15 0 -3
BITMAP
20
20
20
20
20
20
20
20
20
20
20
40
80
80
60
ENDCHAR
STARTCHAR 012F
ENCODING 303
SWIDTH 235 0
DWIDTH 4 0
BBX 3 15 0 -3
BITMAP
40
00
00
40
40
40
40
40
40
40
40
40
80
80
60
ENDCHAR
STARTCHAR 0130
ENCODING 304
SWIDTH 235 0
DWIDTH 4 0
BBX 1 14 2 0
BITMAP
80
00
80
80
80
80
80
80
80
80
80
80
80
80
ENDCHAR
STARTCHAR 0131
ENCODING 305
SWIDTH 235 0
DWIDTH 4 0
BBX 1 9 1 0
BITMAP
80
80
80
80
80
80
80
80
80
ENDCHAR
STARTCHAR 0136
ENCODING 310
SWIDTH 588 0
DWIDTH 10 0
BBX 8 16 2 -4
BITMAP
82
84
88
88
90
B0
D0
88
84
84
82
81
00
10
20
20
ENDCHAR
STARTCHAR 0137
ENCODING 311
SWIDTH 470 0
DWIDTH 8 0
BBX 7 17 1 -4
BITMAP
80
80
80
80
86
84
88
90
B0
C8
88
84
82
00
10
10
20
ENDCHAR
STARTCHAR 0139
ENCODING 313
SWIDTH 529 0
DWIDTH 9 0
BBX 8 16 1 0
BITMAP
20
40
80
00
40
40
40
40
40
40
40
40
40
40
40
7F
ENDCHAR
STARTCHAR 013A
ENCODING 314
SWIDTH 235 0
DWIDTH 4 0
BBX 3 17 1 0
BITMAP
20
40
80
00
80
80
80
80
80
80
80
80
80
80
80
80
40
ENDCHAR
STARTCHAR 013B
ENCODING 315
SWIDTH 529 0
DWIDTH 9 0
BBX 7 16 2 -4
BITMAP
80
80
80
80
80
80
80
80
80
80
80
FE
00
10
20
20
ENDCHAR
STARTCHAR 013C
ENCODING 316
SWIDTH 235 0
DWIDTH 4 0
BBX 2 17 1 -4
BITMAP
80
80
80
80
80
80
80
80
80
80
80
80
40
00
40
40
80
ENDCHAR
STARTCHAR 013D
ENCODING 317
SWIDTH 529 0
DWIDTH 9 0
BBX 7 12 2 0
BITMAP
90
90
90
80
80
80
80
80
80
80
80
FE
ENDCHAR
STARTCHAR 013E
ENCODING 318
SWIDTH 235 0
DWIDTH 4 0
BBX 3 13 1 0
BITMAP
A0
A0
A0
80
80
80
80
80
80
80
80
80
40
ENDCHAR
STARTCHAR 0141
ENCODING 321
SWIDTH 529 0
DWIDTH 9 0
BBX 9 12 0 0
BITMAP
4000
4000
4000
4000
4000
5800
6000
C000
4000
4000
4000
3F80
ENDCHAR
STARTCHAR 0142
ENCODING 322
SWIDTH 235 0
DWIDTH 4 0
BBX 4 13 0 0
BITMAP
40
40
40
40
40
50
60
C0
40
40
40
40
20
ENDCHAR
STARTCHAR 0143
ENCODING 323
SWIDTH 705 0
DWIDTH 12 0
BBX 8 16 2 0
BITMAP
04
08
10
00
81
C1
C1
A1
91
91
89
89
85
83
83
81
ENDCHAR
STARTCHAR 0144
ENCODING 324
SWIDTH 588 0
DWIDTH 10 0
BBX 8 13 1 0
BITMAP
04
08
10
00
FE
82
81
81
81
81
81
81
81
ENDCHAR
STARTCHAR 0145
ENCODING 325
SWIDTH 705 0
DWIDTH 12 0
BBX 8 16 2 -4
BITMAP
81
C1
C1
A1
91
91
89
89
85
83
83
81
00
10
10
10
ENDCHAR
STARTCHAR 0146
ENCODING 326
SWIDTH 588 0
DWIDTH 10 0
BBX 8 13 1 -4
BITMAP
FE
82
81
81
81
81
81
81
81
00
10
10
10
ENDCHAR
STARTCHAR 0147
ENCODING 327
SWIDTH 705 0
DWIDTH 12 0
BBX 8 16 2 0
BITMAP
24
18
08
00
81
C1
C1
A1
91
91
89
89
85
83
83
81
ENDCHAR
STARTCHAR 0148
ENCODING 328
SWIDTH 588 0
DWIDTH 10 0
BBX 8 13 1 0
BITMAP
24
18
10
00
FE
82
81
81
81
81
81
81
81
ENDCHAR
STARTCHAR 014C
ENCODING 332
SWIDTH 705 0
DWIDTH 12 0
BBX 9 15 1 0
BITMAP
1E00
0000
0000
7F80
8080
8080
8080
8080
8080
8080
8080
8080
8080
8080
7F80
ENDCHAR
STARTCHAR 014D
ENCODING 333
SWIDTH 588 0
DWIDTH 10 0
BBX 8 12 1 0
BITMAP
3C
00
00
7E
81
81
81
81
81
81
81
7E
ENDCHAR
STARTCHAR 0150
ENCODING 336
SWIDTH 705 0
DWIDTH 12 0
BBX 9 16 1 0
BITMAP
0500
0A00
1200
0000
7F80
8080
8080
8080
8080
8080
8080
8080
8080
8080
8080
7F80
ENDCHAR
STARTCHAR 0151
ENCODING 337
SWIDTH 588 0
DWIDTH 10 0
BBX 8 13 1 0
BITMAP
0A
14
24
00
7E
81
81
81
81
81
81
81
7E
ENDCHAR
STARTCHAR 0152
ENCODING 338
SWIDTH 941 0
DWIDTH 16 0
BBX 14 12 1 0
BITMAP
7FFC
8080
8080
8080
8080
80FC
8080
8080
8080
8080
8080
7FFC
ENDCHAR
STARTCHAR 0153
ENCODING 339
SWIDTH 941 0
DWIDTH 16 0
BBX 13 9 1 0
BITMAP
7FF8
8208
8208
8208
83F8
8200
8200
8200
7FF8
ENDCHAR
STARTCHAR 0154
ENCODING 340
SWIDTH 647 0
DWIDTH 11 0
BBX 8 16 2 0
BITMAP
08
10
20
00
FE
82
81
81
81
82
FE
84
84
82
82
81
ENDCHAR
STARTCHAR 0155
ENCODING 341
SWIDTH 352 0
DWIDTH 6 0
BBX 5 13 1 0
BITMAP
10
20
20
00
78
80
80
80
80
80
80
80
80
ENDCHAR
STARTCHAR 0156
ENCODING 342
SWIDTH 647 0
DWIDTH 11 0
BBX 8 16 2 -4
BITMAP
FE
82
81
81
81
82
FE
84
84
82
82
81
00
10
10
20
ENDCHAR
STARTCHAR 0157
ENCODING 343
SWIDTH 352 0
DWIDTH 6 0
BBX 5 13 1 -4
BITMAP
78
80
80
80
80
80
80
80
80
00
80
80
80
ENDCHAR
STARTCHAR 0158
ENCODING 344
SWIDTH 647 0
DWIDTH 11 0
BBX 8 16 2 0
BITMAP
44
28
10
00
FE
82
81
81
81
82
FE
84
84
82
82
81
ENDCHAR
STARTCHAR 0159
ENCODING 345
SWIDTH 352 0
DWIDTH 6 0
BBX 5 13 1 0
BITMAP
88
50
20
00
78
80
80
80
80
80
80
80
80
ENDCHAR
STARTCHAR 015A
ENCODING 346
SWIDTH 588 0
DWIDTH 10 0
BBX 8 16 1 0
BITMAP
04
08
10
00
7E
80
80
80
80
78
06
01
01
01
01
FE
ENDCHAR
STARTCHAR 015B
ENCODING 347
SWIDTH 470 0
DWIDTH 8 0
BBX 6 13 1 0
BITMAP
08
10
20
00
7C
80
80
80
78
04
04
04
FC
ENDCHAR
STARTCHAR 015E
ENCODING 350
SWIDTH 588 0
DWIDTH 10 0
BBX 8 15 1 -3
BITMAP
7E
80
80
80
80
78
06
01
01
01
01
FE
08
08
30
ENDCHAR
STARTCHAR 015F
ENCODING 351
SWIDTH 470 0
DWIDTH 8 0
BBX 6 12 1 -3
BITMAP
7C
80
80
80
78
04
04
04
FC
08
08
70
ENDCHAR
STARTCHAR 0160
ENCODING 352
SWIDTH 588 0
DWIDTH 10 0
BBX 8 16 1 0
BITMAP
24
18
10
00
7E
80
80
80
80
78
06
01
01
01
01
FE
ENDCHAR
STARTCHAR 0161
ENCODING 353
SWIDTH 470 0
DWIDTH 8 0
BBX 6 13 1 0
BITMAP
48
28
10
00
7C
80
80
80
78
04
04
04
FC
ENDCHAR
STARTCHAR 0162
ENCODING 354
SWIDTH 588 0
DWIDTH 10 0
BBX 9 15 0 -3
BITMAP
FF80
0800
0800
0800
0800
0800
0800
0800
0800
0800
0800
0800
0400
0400
1800
ENDCHAR
STARTCHAR 0163
ENCODING 355
SWIDTH 352 0
DWIDTH 6 0
BBX 5 15 1 -3
BITMAP
80
80
80
F8
80
80
80
80
80
80
80
78
10
10
60
ENDCHAR
STARTCHAR 0164
ENCODING 356
SWIDTH 588 0
DWIDTH 10 0
BBX 9 16 0 0
BITMAP
1200
0C00
0800
0000
FF80
0800
0800
0800
0800
0800
0800
0800
0800
0800
0800
0800
ENDCHAR
STARTCHAR 0165
ENCODING 357
SWIDTH 352 0
DWIDTH 6 0
BBX 5 13 1 0
BITMAP
10
90
A0
80
F8
80
80
80
80
80
80
80
78
ENDCHAR
STARTCHAR 016A
ENCODING 362
SWIDTH 705 0
DWIDTH 12 0
BBX 8 15 2 0
BITMAP
3C
00
00
81
81
81
81
81
81
81
81
81
81
81
FE
ENDCHAR
STARTCHAR 016B
ENCODING 363
SWIDTH 588 0
DWIDTH 10 0
BBX 7 12 1 0
BITMAP
3C
00
00
82
82
82
82
82
82
82
82
7E
ENDCHAR
STARTCHAR 016E
ENCODING 366
SWIDTH 705 0
DWIDTH 12 0
BBX 8 16 2 0
BITMAP
38
24
38
00
81
81
81
81
81
81
81
81
81
81
81
FE
ENDCHAR
STARTCHAR 016F
ENCODING 367
SWIDTH 588 0
DWIDTH 10 0
BBX 7 13 1 0
BITMAP
38
24
38
00
82
82
82
82
82
82
82
82
7E
ENDCHAR
STARTCHAR 0170
ENCODING 368
SWIDTH 705 0
DWIDTH 12 0
BBX 8 16 2 0
BITMAP
1A
14
24
00
81
81
81
81
81
81
81
81
81
81
81
FE
ENDCHAR
STARTCHAR 0171
ENCODING 369
SWIDTH 588 0
DWIDTH 10 0
BBX 7 13 1 0
BITMAP
0A
14
24
00
82
82
82
82
82
82
82
82
7E
ENDCHAR
STARTCHAR 0172
ENCODING 370
SWIDTH 705 0
DWIDTH 12 0
BBX 8 15 2 -3
BITMAP
81
81
81
81
81
81
81
81
81
81
81
FE
10
10
0C
ENDCHAR
STARTCHAR 0173
ENCODING 371
SWIDTH 588 0
DWIDTH 10 0
BBX 7 12 1 -3
BITMAP
82
82
82
82
82
82
82
82
7E
08
08
06
ENDCHAR
STARTCHAR 0178
ENCODING 376
SWIDTH 529 0
DWIDTH 9 0
BBX 9 14 0 0
BITMAP
1200
0000
8080
4100
2100
2200
1200
1400
0C00
0800
0800
0800
0800
0800
ENDCHAR
STARTCHAR 0179
ENCODING 377
SWIDTH 588 0
DWIDTH 10 0
BBX 8 16 1 0
BITMAP
04
08
10
00
FF
02
02
04
08
08
10
20
20
40
80
FF
ENDCHAR
STARTCHAR 017A
ENCODING 378
SWIDTH 529 0
DWIDTH 9 0
BBX 7 13 1 0
BITMAP
08
10
20
00
FC
04
08
10
10
20
40
40
FE
ENDCHAR
STARTCHAR 017B
ENCODING 379
SWIDTH 588 0
DWIDTH 10 0
BBX 8 14 1 0
BITMAP
08
00
FF
02
02
04
08
08
10
20
20
40
80
FF
ENDCHAR
STARTCHAR 017C
ENCODING 380
SWIDTH 529 0
DWIDTH 9 0
BBX 7 12 1 0
BITMAP
10
00
00
FC
04
08
10
10
20
40
40
FE
ENDCHAR
STARTCHAR 017D
ENCODING 381
SWIDTH 588 0
DWIDTH 10 0
BBX 8 16 1 0
BITMAP
24
18
08
00
FF
02
02
04
08
08
10
20
20
40
80
FF
ENDCHAR
STARTCHAR 017E
ENCODING 382
SWIDTH 529 0
DWIDTH 9 0
BBX 7 13 1 0
BITMAP
48
28
10
00
FC
04
08
10
10
20
40
40
FE
ENDCHAR
STARTCHAR 0192
ENCODING 402
SWIDTH 588 0
DWIDTH 10 0
BBX 7 15 1 -2
BITMAP
1E
20
20
20
3E
20
20
20
20
20
20
20
20
20
C0
ENDCHAR
STARTCHAR 0218
ENCODING 536
SWIDTH 588 0
DWIDTH 10 0
BBX 8 16 1 -4
BITMAP
7E
80
80
80
80
78
06
01
01
01
01
FE
00
10
10
10
ENDCHAR
STARTCHAR 0219
ENCODING 537
SWIDTH 470 0
DWIDTH 8 0
BBX 6 13 1 -4
BITMAP
7C
80
80
80
78
04
04
04
FC
00
10
20
20
ENDCHAR
STARTCHAR 021A
ENCODING 538
SWIDTH 588 0
DWIDTH 10 0
BBX 9 16 0 -4
BITMAP
FF80
0800
0800
0800
0800
0800
0800
0800
0800
0800
0800
0800
0000
0800
0800
0800
ENDCHAR
STARTCHAR 021B
ENCODING 539
SWIDTH 352 0
DWIDTH 6 0
BBX 5 16 1 -4
BITMAP
80
80
80
F8
80
80
80
80
80
80
80
78
00
20
20
20
ENDCHAR
STARTCHAR 0237
ENCODING 567
SWIDTH 235 0
DWIDTH 4 0
BBX 2 13 0 -4
BITMAP
40
40
40
40
40
40
40
40
40
40
40
40
C0
ENDCHAR
STARTCHAR 02C6
ENCODING 710
SWIDTH 529 0
DWIDTH 9 0
BBX 4 3 2 10
BITMAP
20
50
90
ENDCHAR
STARTCHAR 02C7
ENCODING 711
SWIDTH 529 0
DWIDTH 9 0
BBX 4 3 2 10
BITMAP
90
50
20
ENDCHAR
STARTCHAR 02C9
ENCODING 713
SWIDTH 529 0
DWIDTH 9 0
BBX 4 1 2 11
BITMAP
F0
ENDCHAR
STARTCHAR 02D8
ENCODING 728
SWIDTH 529 0
DWIDTH 9 0
BBX 4 2 2 10
BITMAP
90
F0
ENDCHAR
STARTCHAR 02D9
ENCODING 729
SWIDTH 529 0
DWIDTH 9 0
BBX 1 1 4 11
BITMAP
80
ENDCHAR
STARTCHAR 02DA
ENCODING 730
SWIDTH 529 0
DWIDTH 9 0
BBX 3 3 3 10
BITMAP
E0
A0
E0
ENDCHAR
STARTCHAR 02DB
ENCODING 731
SWIDTH 529 0
DWIDTH 9 0
BBX 3 4 3 -3
BITMAP
40
80
80
60
ENDCHAR
STARTCHAR 02DC
ENCODING 732
SWIDTH 529 0
DWIDTH 9 0
BBX 5 2 2 10
BITMAP
48
B0
ENDCHAR
STARTCHAR 02DD
ENCODING 733
SWIDTH 529 0
DWIDTH 9 0
BBX 6 3 2 10
BITMAP
2C
48
90
ENDCHAR
STARTCHAR 0300
ENCODING 768
SWIDTH 0 0
DWIDTH 0 0
BBX 3 3 -7 10
BITMAP
80
40
20
ENDCHAR
STARTCHAR 0301
ENCODING 769
SWIDTH 0 0
DWIDTH 0 0
BBX 3 3 -6 10
BITMAP
20
40
80
ENDCHAR
STARTCHAR 0302
ENCODING 770
SWIDTH 0 0
DWIDTH 0 0
BBX 4 3 -7 10
BITMAP
20
50
90
ENDCHAR
STARTCHAR 0303
ENCODING 771
SWIDTH 0 0
DWIDTH 0 0
BBX 5 2 -7 10
BITMAP
48
B0
ENDCHAR
STARTCHAR 0304
ENCODING 772
SWIDTH 0 0
DWIDTH 0 0
BBX 4 1 -7 11
BITMAP
F0
ENDCHAR
STARTCHAR 0306
ENCODING 774
SWIDTH 0 0
DWIDTH 0 0
BBX 4 2 -7 10
BITMAP
90
F0
ENDCHAR
STARTCHAR 0307
ENCODING 775
SWIDTH 0 0
DWIDTH 0 0
BBX 1 1 -5 11
BITMAP
80
ENDCHAR
STARTCHAR 0308
ENCODING 776
SWIDTH 0 0
DWIDTH 0 0
BBX 4 1 -7 11
BITMAP
90
ENDCHAR
STARTCHAR 030A
ENCODING 778
SWIDTH 0 0
DWIDTH 0 0
BBX 3 3 -6 10
BITMAP
E0
A0
E0
ENDCHAR
STARTCHAR 030B
ENCODING 779
SWIDTH 0 0
DWIDTH 0 0
BBX 5 3 -7 10
BITMAP
28
48
90
ENDCHAR
STARTCHAR 030C
ENCODING 780
SWIDTH 0 0
DWIDTH 0 0
BBX 4 3 -7 10
BITMAP
90
60
20
ENDCHAR
STARTCHAR 0326
ENCODING 806
SWIDTH 0 0
DWIDTH 0 0
BBX 2 3 -6 -4
BITMAP
40
80
80
ENDCHAR
STARTCHAR 0327
ENCODING 807
SWIDTH 0 0
DWIDTH 0 0
BBX 3 3 -7 -3
BITMAP
20
20
E0
ENDCHAR
STARTCHAR 0328
ENCODING 808
SWIDTH 0 0
DWIDTH 0 0
BBX 3 4 -6 -3
BITMAP
40
80
80
60
ENDCHAR
STARTCHAR 03C0
ENCODING 960
SWIDTH 588 0
DWIDTH 10 0
BBX 8 9 1 0
BITMAP
FF
81
81
81
81
81
81
81
81
ENDCHAR
STARTCHAR 1E9E
ENCODING 7838
SWIDTH 647 0
DWIDTH 11 0
BBX 8 12 2 0
BITMAP
FE
82
84
88
88
9E
81
81
81
81
81
9F
ENDCHAR
STARTCHAR 2013
ENCODING 8211
SWIDTH 588 0
DWIDTH 10 0
BBX 8 1 1 5
BITMAP
FF
ENDCHAR
STARTCHAR 2014
ENCODING 8212
SWIDTH 1000 0
DWIDTH 17 0
BBX 15 1 1 5
BITMAP
FFFE
ENDCHAR
STARTCHAR 2018
ENCODING 8216
SWIDTH 235 0
DWIDTH 4 0
BBX 2 4 1 9
BITMAP
40
40
40
80
ENDCHAR
STARTCHAR 2019
ENCODING 8217
SWIDTH 235 0
DWIDTH 4 0
BBX 2 4 1 9
BITMAP
40
40
80
80
ENDCHAR
STARTCHAR 201A
ENCODING 8218
SWIDTH 235 0
DWIDTH 4 0
BBX 2 4 1 -2
BITMAP
C0
80
80
80
ENDCHAR
STARTCHAR 201C
ENCODING 8220
SWIDTH 411 0
DWIDTH 7 0
BBX 5 4 1 9
BITMAP
48
48
50
90
ENDCHAR
STARTCHAR 201D
ENCODING 8221
SWIDTH 411 0
DWIDTH 7 0
BBX 5 4 1 9
BITMAP
48
50
90
90
ENDCHAR
STARTCHAR 201E
ENCODING 8222
SWIDTH 411 0
DWIDTH 7 0
BBX 4 4 1 -2
BITMAP
D0
90
90
A0
ENDCHAR
STARTCHAR 2020
ENCODING 8224
SWIDTH 470 0
DWIDTH 8 0
BBX 6 14 1 -2
BITMAP
10
10
10
10
FC
10
10
10
10
10
10
10
10
10
ENDCHAR
STARTCHAR 2021
ENCODING 8225
SWIDTH 470 0
DWIDTH 8 0
BBX 6 14 1 -2
BITMAP
10
10
10
10
FC
10
10
10
10
FC
10
10
10
10
ENDCHAR
STARTCHAR 2022
ENCODING 8226
SWIDTH 352 0
DWIDTH 6 0
BBX 2 3 2 5
BITMAP
C0
C0
C0
ENDCHAR
STARTCHAR 2026
ENCODING 8230
SWIDTH 764 0
DWIDTH 13 0
BBX 9 2 2 0
BITMAP
8880
8880
ENDCHAR
STARTCHAR 2030
ENCODING 8240
SWIDTH 1176 0
DWIDTH 20 0
BBX 18 12 1 0
BITMAP
F08000
908000
910000
910000
92F3C0
928A40
948A40
F48A40
088A40
088A40
088A40
10F3C0
ENDCHAR
STARTCHAR 2039
ENCODING 8249
SWIDTH 294 0
DWIDTH 5 0
BBX 3 7 1 2
BITMAP
20
40
80
80
80
40
20
ENDCHAR
STARTCHAR 203A
ENCODING 8250
SWIDTH 294 0
DWIDTH 5 0
BBX 3 7 1 2
BITMAP
80
40
40
20
40
40
80
ENDCHAR
STARTCHAR 2044
ENCODING 8260
SWIDTH 117 0
DWIDTH 2 0
BBX 6 12 -2 0
BITMAP
04
04
08
08
10
10
20
20
40
40
80
80
ENDCHAR
STARTCHAR 2070
ENCODING 8304
SWIDTH 352 0
DWIDTH 6 0
BBX 4 8 1 4
BITMAP
F0
90
90
90
90
90
90
F0
ENDCHAR
STARTCHAR 2074
ENCODING 8308
SWIDTH 352 0
DWIDTH 6 0
BBX 4 8 1 4
BITMAP
20
40
40
50
90
90
F0
10
ENDCHAR
STARTCHAR 2080
ENCODING 8320
SWIDTH 352 0
DWIDTH 6 0
BBX 4 8 1 0
BITMAP
F0
90
90
90
90
90
90
F0
ENDCHAR
STARTCHAR 2081
ENCODING 8321
SWIDTH 352 0
DWIDTH 6 0
BBX 4 8 1 0
BITMAP
E0
20
20
20
20
20
20
F0
ENDCHAR
STARTCHAR 2082
ENCODING 8322
SWIDTH 352 0
DWIDTH 6 0
BBX 4 8 1 0
BITMAP
F0
10
10
30
C0
80
80
F0
ENDCHAR
STARTCHAR 2083
ENCODING 8323
SWIDTH 352 0
DWIDTH 6 0
BBX 4 8 1 0
BITMAP
F0
10
10
70
10
10
10
F0
ENDCHAR
STARTCHAR 2084
ENCODING 8324
SWIDTH 352 0
DWIDTH 6 0
BBX 4 8 1 0
BITMAP
20
40
40
50
90
90
F0
10
ENDCHAR
STARTCHAR 20AC
ENCODING 8364
SWIDTH 588 0
DWIDTH 10 0
BBX 8 12 1 0
BITMAP
3F
40
40
40
FE
40
FC
40
40
40
40
3F
ENDCHAR
STARTCHAR 20BA
ENCODING 8378
SWIDTH 588 0
DWIDTH 10 0
BBX 9 12 0 0
BITMAP
2000
2000
2600
3800
E200
3C00
E000
2080
2080
2080
2100
3E00
ENDCHAR
STARTCHAR 20BD
ENCODING 8381
SWIDTH 588 0
DWIDTH 10 0
BBX 8 12 1 0
BITMAP
7E
41
41
41
41
FE
40
FC
40
40
40
40
ENDCHAR
STARTCHAR 2113
ENCODING 8467
SWIDTH 235 0
DWIDTH 4 0
BBX 2 13 1 0
BITMAP
80
80
80
80
80
80
80
80
80
80
80
80
40
ENDCHAR
STARTCHAR 2122
ENCODING 8482
SWIDTH 764 0
DWIDTH 13 0
BBX 12 6 0 6
BITMAP
FA10
2310
2330
22D0
22D0
2210
ENDCHAR
STARTCHAR 2126
ENCODING 8486
SWIDTH 705 0
DWIDTH 12 0
BBX 10 12 1 0
BITMAP
7F80
8080
8080
8080
8080
8080
8080
8080
4080
4100
2100
F3C0
ENDCHAR
STARTCHAR 212E
ENCODING 8494
SWIDTH 882 0
DWIDTH 15 0
BBX 13 12 1 0
BITMAP
0F80
3060
4010
4010
C018
C018
FFF8
C000
4000
4020
3060
0F80
ENDCHAR
STARTCHAR 2202
ENCODING 8706
SWIDTH 588 0
DWIDTH 10 0
BBX 7 13 1 0
BITMAP
7C
02
02
02
02
7E
82
82
82
82
82
82
7E
ENDCHAR
STARTCHAR 2206
ENCODING 8710
SWIDTH 647 0
DWIDTH 11 0
BBX 10 12 0 0
BITMAP
0C00
0A00
0A00
1200
1100
1100
2100
2080
4080
4080
4040
FFC0
ENDCHAR
STARTCHAR 220F
ENCODING 8719
SWIDTH 705 0
DWIDTH 12 0
BBX 8 14 2 -2
BITMAP
FF
81
81
81
81
81
81
81
81
81
81
81
81
81
ENDCHAR
STARTCHAR 2211
ENCODING 8721
SWIDTH 588 0
DWIDTH 10 0
BBX 8 14 1 -2
BITMAP
FF
80
40
20
20
10
08
08
10
20
20
40
80
FF
ENDCHAR
STARTCHAR 2212
ENCODING 8722
SWIDTH 588 0
DWIDTH 10 0
BBX 8 1 1 5
BITMAP
FF
ENDCHAR
STARTCHAR 2215
ENCODING 8725
SWIDTH 117 0
DWIDTH 2 0
BBX 6 12 -2 0
BITMAP
04
04
08
08
10
10
20
20
40
40
80
80
ENDCHAR
STARTCHAR 2219
ENCODING 8729
SWIDTH 235 0
DWIDTH 4 0
BBX 1 2 2 5
BITMAP
80
80
ENDCHAR
STARTCHAR 221A
ENCODING 8730
SWIDTH 588 0
DWIDTH 10 0
BBX 10 13 0 0
BITMAP
00C0
0080
0080
0100
0100
0100
E200
2200
2200
1400
1400
1400
0800
ENDCHAR
STARTCHAR 221E
ENCODING 8734
SWIDTH 588 0
DWIDTH 10 0
BBX 9 5 1 3
BITMAP
FF00
8880
8880
8880
FF00
ENDCHAR
STARTCHAR 222B
ENCODING 8747
SWIDTH 411 0
DWIDTH 7 0
BBX 6 17 0 -4
BITMAP
0C
10
10
10
10
10
10
10
10
10
10
10
10
10
10
10
E0
ENDCHAR
STARTCHAR 2248
ENCODING 8776
SWIDTH 588 0
DWIDTH 10 0
BBX 8 7 1 2
BITMAP
31
52
8C
00
31
52
8C
ENDCHAR
STARTCHAR 2260
ENCODING 8800
SWIDTH 588 0
DWIDTH 10 0
BBX 8 9 1 1
BITMAP
04
04
FF
08
10
10
FF
20
40
ENDCHAR
STARTCHAR 2264
ENCODING 8804
SWIDTH 588 0
DWIDTH 10 0
BBX 8 9 1 0
BITMAP
07
18
60
80
60
18
07
00
FF
ENDCHAR
STARTCHAR 2265
ENCODING 8805
SWIDTH 588 0
DWIDTH 10 0
BBX 8 9 1 0
BITMAP
E0
18
06
01
06
18
E0
00
FF
ENDCHAR
STARTCHAR 25CA
ENCODING 9674
SWIDTH 588 0
DWIDTH 10 0
BBX 8 12 1 0
BITMAP
18
18
24
44
42
82
83
42
44
24
18
18
ENDCHAR
STARTCHAR F000
ENCODING 61440
SWIDTH 705 0
DWIDTH 12 0
BBX 10 9 1 1
BITMAP
0800
0C00
0C00
1E00
3F00
3F00
7F80
7F80
FFC0
ENDCHAR
STARTCHAR FB01
ENCODING 64257
SWIDTH 588 0
DWIDTH 10 0
BBX 7 13 1 0
BITMAP
78
82
80
80
FA
82
82
82
82
82
82
82
82
ENDCHAR
STARTCHAR FB02
ENCODING 64258
SWIDTH 588 0
DWIDTH 10 0
BBX 9 13 1 0
BITMAP
7A00
8200
8200
8200
FA00
8200
8200
8200
8200
8200
8200
8200
8180
ENDCHAR
ENDFONT
